<?xml version="1.0" encoding="UTF-8"?>
<svg id="Camada_2" data-name="Camada 2" xmlns="http://www.w3.org/2000/svg" viewBox="0 0 486.66 485.84">
  <defs>
    <style>
      .cls-1 {
        fill: #00c2c7;
      }
    </style>
  </defs>
  <g id="Camada_1-2" data-name="Camada 1">
    <path class="cls-1" d="M179.46,131.46l-7.5,2.15,7.5,7.74,2.44-10.59-2.44.69ZM205.69,129.83l-5.18-4.04-6.05,1.6-.11,2.44-.38,8.67,12.64-7.95-.92-.71ZM219.02,226.27l4.42-13.41c-4.98,2.38-8.15,6.96-10.74,11.53-1.99-2.81-4.25-5.14-7.36-6.25l4,10.32,12.49,2.7,8.86-2.45c-3.36-2.75-7.4-3.1-11.67-2.44ZM328.45,259.25c-.82.03-1.66.12-2.5.22l2.5-7.72,1.58-4.88c-.55.28-1.08.58-1.58.9-3.98,2.5-6.53,6.07-8.61,10.16-2.15-2.64-4.06-4.68-7.3-5.98l3.8,9.88,12.11,2.53.74.15c2.95-1.66,5.76-1.82,8.79-2.59-2.83-2.21-6.06-2.83-9.53-2.67ZM328.45,259.25c-.82.03-1.66.12-2.5.22l2.5-7.72,1.58-4.88c-.55.28-1.08.58-1.58.9-3.98,2.5-6.53,6.07-8.61,10.16-2.15-2.64-4.06-4.68-7.3-5.98l3.8,9.88,12.11,2.53.74.15c2.95-1.66,5.76-1.82,8.79-2.59-2.83-2.21-6.06-2.83-9.53-2.67ZM219.02,226.27l4.42-13.41c-4.98,2.38-8.15,6.96-10.74,11.53-1.99-2.81-4.25-5.14-7.36-6.25l4,10.32,12.49,2.7,8.86-2.45c-3.36-2.75-7.4-3.1-11.67-2.44ZM205.69,129.83l-5.18-4.04-6.05,1.6-.11,2.44-.38,8.67,12.64-7.95-.92-.71ZM179.46,131.46l-7.5,2.15,7.5,7.74,2.44-10.59-2.44.69ZM179.46,131.46l-7.5,2.15,7.5,7.74,2.44-10.59-2.44.69ZM205.69,129.83l-5.18-4.04-6.05,1.6-.11,2.44-.38,8.67,12.64-7.95-.92-.71ZM219.02,226.27l4.42-13.41c-4.98,2.38-8.15,6.96-10.74,11.53-1.99-2.81-4.25-5.14-7.36-6.25l4,10.32,12.49,2.7,8.86-2.45c-3.36-2.75-7.4-3.1-11.67-2.44ZM328.45,259.25c-.82.03-1.66.12-2.5.22l2.5-7.72,1.58-4.88c-.55.28-1.08.58-1.58.9-3.98,2.5-6.53,6.07-8.61,10.16-2.15-2.64-4.06-4.68-7.3-5.98l3.8,9.88,12.11,2.53.74.15c2.95-1.66,5.76-1.82,8.79-2.59-2.83-2.21-6.06-2.83-9.53-2.67ZM328.45,259.25c-.82.03-1.66.12-2.5.22l2.5-7.72,1.58-4.88c-.55.28-1.08.58-1.58.9-3.98,2.5-6.53,6.07-8.61,10.16-2.15-2.64-4.06-4.68-7.3-5.98l3.8,9.88,12.11,2.53.74.15c2.95-1.66,5.76-1.82,8.79-2.59-2.83-2.21-6.06-2.83-9.53-2.67ZM219.02,226.27l4.42-13.41c-4.98,2.38-8.15,6.96-10.74,11.53-1.99-2.81-4.25-5.14-7.36-6.25l4,10.32,12.49,2.7,8.86-2.45c-3.36-2.75-7.4-3.1-11.67-2.44ZM205.69,129.83l-5.18-4.04-6.05,1.6-.11,2.44-.38,8.67,12.64-7.95-.92-.71ZM179.46,131.46l-7.5,2.15,7.5,7.74,2.44-10.59-2.44.69ZM179.46,131.46l-7.5,2.15,7.5,7.74,2.44-10.59-2.44.69ZM205.69,129.83l-5.18-4.04-6.05,1.6-.11,2.44-.38,8.67,12.64-7.95-.92-.71ZM219.02,226.27l4.42-13.41c-4.98,2.38-8.15,6.96-10.74,11.53-1.99-2.81-4.25-5.14-7.36-6.25l4,10.32,12.49,2.7,8.86-2.45c-3.36-2.75-7.4-3.1-11.67-2.44ZM328.45,259.25c-.82.03-1.66.12-2.5.22l2.5-7.72,1.58-4.88c-.55.28-1.08.58-1.58.9-3.98,2.5-6.53,6.07-8.61,10.16-2.15-2.64-4.06-4.68-7.3-5.98l3.8,9.88,12.11,2.53.74.15c2.95-1.66,5.76-1.82,8.79-2.59-2.83-2.21-6.06-2.83-9.53-2.67ZM378.29,272.91l-5.67.63-26.88,2.82-17.29-.83-27.67-1.32-24.3-6.49-2.92-.78-16.12-3.9-21.4-4.82-6.54-1.48-48.19-7.35c-.64-.1-1.25-.18-1.85-.27-2.04-.31-3.92-.68-5.84-1.57l-27.23-12.76-3.79-1.1v26.09l10.02-9.56c1.16-1.1,2.95-1.28,4.5-.82l22.34,7.5,2.6.87,49.09,6.23,4.89,2.43,28.37,14.1c2.27,1.13,2.95,2.65,3.28,4.97l2.98,21.3,6.2-6.97,15.06-16.93c1.19-1.34,3.27-1.44,5.06-1.36l31.46,1.04,17.42.58,34.35-6.55c.37-.11.74-.21,1.11-.32l-3.04-3.39ZM342.26,318.99v1l.86-2.08-.86,1.08ZM328.45,259.25v5.11l.74.15c2.95-1.66,5.76-1.82,8.79-2.59-2.83-2.21-6.06-2.83-9.53-2.67ZM328.45,247.76v3.99l1.58-4.88c-.55.28-1.08.58-1.58.9ZM328.45,259.25c-.82.03-1.66.12-2.5.22l2.5-7.72,1.58-4.88c-.55.28-1.08.58-1.58.9-3.98,2.5-6.53,6.07-8.61,10.16-2.15-2.64-4.06-4.68-7.3-5.98l3.8,9.88,12.11,2.53.74.15c2.95-1.66,5.76-1.82,8.79-2.59-2.83-2.21-6.06-2.83-9.53-2.67ZM219.02,226.27l4.42-13.41c-4.98,2.38-8.15,6.96-10.74,11.53-1.99-2.81-4.25-5.14-7.36-6.25l4,10.32,12.49,2.7,8.86-2.45c-3.36-2.75-7.4-3.1-11.67-2.44ZM205.69,129.83l-5.18-4.04-6.05,1.6-.11,2.44-.38,8.67,12.64-7.95-.92-.71ZM179.46,131.46l-7.5,2.15,7.5,7.74,2.44-10.59-2.44.69ZM179.46,131.46l-7.5,2.15,7.5,7.74,2.44-10.59-2.44.69ZM205.69,129.83l-5.18-4.04-6.05,1.6-.11,2.44-.38,8.67,12.64-7.95-.92-.71ZM219.02,226.27l4.42-13.41c-4.98,2.38-8.15,6.96-10.74,11.53-1.99-2.81-4.25-5.14-7.36-6.25l4,10.32,12.49,2.7,8.86-2.45c-3.36-2.75-7.4-3.1-11.67-2.44ZM328.45,259.25c-.82.03-1.66.12-2.5.22l2.5-7.72,1.58-4.88c-.55.28-1.08.58-1.58.9-3.98,2.5-6.53,6.07-8.61,10.16-2.15-2.64-4.06-4.68-7.3-5.98l3.8,9.88,12.11,2.53.74.15c2.95-1.66,5.76-1.82,8.79-2.59-2.83-2.21-6.06-2.83-9.53-2.67ZM378.29,272.91l-5.67.63-26.88,2.82-17.29-.83-27.67-1.32-24.3-6.49-2.92-.78-16.12-3.9-21.4-4.82-6.54-1.48-48.19-7.35c-.64-.1-1.25-.18-1.85-.27-2.04-.31-3.92-.68-5.84-1.57l-27.23-12.76-3.79-1.1v26.09l10.02-9.56c1.16-1.1,2.95-1.28,4.5-.82l22.34,7.5,2.6.87,49.09,6.23,4.89,2.43,28.37,14.1c2.27,1.13,2.95,2.65,3.28,4.97l2.98,21.3,6.2-6.97,15.06-16.93c1.19-1.34,3.27-1.44,5.06-1.36l31.46,1.04,17.42.58,34.35-6.55c.37-.11.74-.21,1.11-.32l-3.04-3.39ZM342.26,318.99v1l.86-2.08-.86,1.08ZM328.45,259.25c-.82.03-1.66.12-2.5.22l2.5-7.72,1.58-4.88c-.55.28-1.08.58-1.58.9-3.98,2.5-6.53,6.07-8.61,10.16-2.15-2.64-4.06-4.68-7.3-5.98l3.8,9.88,12.11,2.53.74.15c2.95-1.66,5.76-1.82,8.79-2.59-2.83-2.21-6.06-2.83-9.53-2.67ZM219.02,226.27l4.42-13.41c-4.98,2.38-8.15,6.96-10.74,11.53-1.99-2.81-4.25-5.14-7.36-6.25l4,10.32,12.49,2.7,8.86-2.45c-3.36-2.75-7.4-3.1-11.67-2.44ZM205.69,129.83l-5.18-4.04-6.05,1.6-.11,2.44-.38,8.67,12.64-7.95-.92-.71ZM179.46,131.46l-7.5,2.15,7.5,7.74,2.44-10.59-2.44.69ZM179.46,131.46l-7.5,2.15,7.5,7.74,2.44-10.59-2.44.69ZM205.69,129.83l-5.18-4.04-6.05,1.6-.11,2.44-.38,8.67,12.64-7.95-.92-.71ZM219.02,226.27l4.42-13.41c-4.98,2.38-8.15,6.96-10.74,11.53-1.99-2.81-4.25-5.14-7.36-6.25l4,10.32,12.49,2.7,8.86-2.45c-3.36-2.75-7.4-3.1-11.67-2.44ZM328.45,259.25c-.82.03-1.66.12-2.5.22l2.5-7.72,1.58-4.88c-.55.28-1.08.58-1.58.9-3.98,2.5-6.53,6.07-8.61,10.16-2.15-2.64-4.06-4.68-7.3-5.98l3.8,9.88,12.11,2.53.74.15c2.95-1.66,5.76-1.82,8.79-2.59-2.83-2.21-6.06-2.83-9.53-2.67ZM378.29,272.91l-5.67.63-26.88,2.82-17.29-.83-27.67-1.32-24.3-6.49-2.92-.78-16.12-3.9-21.4-4.82-6.54-1.48-48.19-7.35c-.64-.1-1.25-.18-1.85-.27-2.04-.31-3.92-.68-5.84-1.57l-27.23-12.76-3.79-1.1v26.09l10.02-9.56c1.16-1.1,2.95-1.28,4.5-.82l22.34,7.5,2.6.87,49.09,6.23,4.89,2.43,28.37,14.1c2.27,1.13,2.95,2.65,3.28,4.97l2.98,21.3,6.2-6.97,15.06-16.93c1.19-1.34,3.27-1.44,5.06-1.36l31.46,1.04,17.42.58,34.35-6.55c.37-.11.74-.21,1.11-.32l-3.04-3.39ZM342.26,318.99v1l.86-2.08-.86,1.08ZM328.45,259.25c-.82.03-1.66.12-2.5.22l2.5-7.72,1.58-4.88c-.55.28-1.08.58-1.58.9-3.98,2.5-6.53,6.07-8.61,10.16-2.15-2.64-4.06-4.68-7.3-5.98l3.8,9.88,12.11,2.53.74.15c2.95-1.66,5.76-1.82,8.79-2.59-2.83-2.21-6.06-2.83-9.53-2.67ZM219.02,226.27l4.42-13.41c-4.98,2.38-8.15,6.96-10.74,11.53-1.99-2.81-4.25-5.14-7.36-6.25l4,10.32,12.49,2.7,8.86-2.45c-3.36-2.75-7.4-3.1-11.67-2.44ZM205.69,129.83l-5.18-4.04-6.05,1.6-.11,2.44-.38,8.67,12.64-7.95-.92-.71ZM179.46,131.46l-7.5,2.15,7.5,7.74,2.44-10.59-2.44.69ZM179.46,131.46l-7.5,2.15,7.5,7.74,2.44-10.59-2.44.69ZM205.69,129.83l-5.18-4.04-6.05,1.6-.11,2.44-.38,8.67,12.64-7.95-.92-.71ZM219.02,226.27l4.42-13.41c-4.98,2.38-8.15,6.96-10.74,11.53-1.99-2.81-4.25-5.14-7.36-6.25l4,10.32,12.49,2.7,8.86-2.45c-3.36-2.75-7.4-3.1-11.67-2.44ZM328.45,259.25c-.82.03-1.66.12-2.5.22l2.5-7.72,1.58-4.88c-.55.28-1.08.58-1.58.9-3.98,2.5-6.53,6.07-8.61,10.16-2.15-2.64-4.06-4.68-7.3-5.98l3.8,9.88,12.11,2.53.74.15c2.95-1.66,5.76-1.82,8.79-2.59-2.83-2.21-6.06-2.83-9.53-2.67ZM378.29,272.91l-5.67.63-26.88,2.82-17.29-.83-27.67-1.32-24.3-6.49-2.92-.78-16.12-3.9-21.4-4.82-6.54-1.48-48.19-7.35c-.64-.1-1.25-.18-1.85-.27-2.04-.31-3.92-.68-5.84-1.57l-27.23-12.76-3.79-1.1v26.09l10.02-9.56c1.16-1.1,2.95-1.28,4.5-.82l22.34,7.5,2.6.87,49.09,6.23,4.89,2.43,28.37,14.1c2.27,1.13,2.95,2.65,3.28,4.97l2.98,21.3,6.2-6.97,15.06-16.93c1.19-1.34,3.27-1.44,5.06-1.36l31.46,1.04,17.42.58,34.35-6.55c.37-.11.74-.21,1.11-.32l-3.04-3.39ZM342.26,318.99v1l.86-2.08-.86,1.08ZM328.45,259.25c-.82.03-1.66.12-2.5.22l2.5-7.72,1.58-4.88c-.55.28-1.08.58-1.58.9-3.98,2.5-6.53,6.07-8.61,10.16-2.15-2.64-4.06-4.68-7.3-5.98l3.8,9.88,12.11,2.53.74.15c2.95-1.66,5.76-1.82,8.79-2.59-2.83-2.21-6.06-2.83-9.53-2.67ZM219.02,226.27l4.42-13.41c-4.98,2.38-8.15,6.96-10.74,11.53-1.99-2.81-4.25-5.14-7.36-6.25l4,10.32,12.49,2.7,8.86-2.45c-3.36-2.75-7.4-3.1-11.67-2.44ZM205.69,129.83l-5.18-4.04-6.05,1.6-.11,2.44-.38,8.67,12.64-7.95-.92-.71ZM179.46,131.46l-7.5,2.15,7.5,7.74,2.44-10.59-2.44.69ZM179.46,131.46l-7.5,2.15,7.5,7.74,2.44-10.59-2.44.69ZM205.69,129.83l-5.18-4.04-6.05,1.6-.11,2.44-.38,8.67,12.64-7.95-.92-.71ZM219.02,226.27l4.42-13.41c-4.98,2.38-8.15,6.96-10.74,11.53-1.99-2.81-4.25-5.14-7.36-6.25l4,10.32,12.49,2.7,8.86-2.45c-3.36-2.75-7.4-3.1-11.67-2.44ZM328.45,259.25c-.82.03-1.66.12-2.5.22l2.5-7.72,1.58-4.88c-.55.28-1.08.58-1.58.9-3.98,2.5-6.53,6.07-8.61,10.16-2.15-2.64-4.06-4.68-7.3-5.98l3.8,9.88,12.11,2.53.74.15c2.95-1.66,5.76-1.82,8.79-2.59-2.83-2.21-6.06-2.83-9.53-2.67ZM378.29,272.91l-5.67.63-26.88,2.82-17.29-.83-27.67-1.32-24.3-6.49-2.92-.78-16.12-3.9-21.4-4.82-6.54-1.48-48.19-7.35c-.64-.1-1.25-.18-1.85-.27-2.04-.31-3.92-.68-5.84-1.57l-27.23-12.76-3.79-1.1v26.09l10.02-9.56c1.16-1.1,2.95-1.28,4.5-.82l22.34,7.5,2.6.87,49.09,6.23,4.89,2.43,28.37,14.1c2.27,1.13,2.95,2.65,3.28,4.97l2.98,21.3,6.2-6.97,15.06-16.93c1.19-1.34,3.27-1.44,5.06-1.36l31.46,1.04,17.42.58,34.35-6.55c.37-.11.74-.21,1.11-.32l-3.04-3.39ZM342.26,319.99l.86-2.08-.86,1.08v1ZM328.45,259.25c-.82.03-1.66.12-2.5.22l2.5-7.72,1.58-4.88c-.55.28-1.08.58-1.58.9-3.98,2.5-6.53,6.07-8.61,10.16-2.15-2.64-4.06-4.68-7.3-5.98l3.8,9.88,12.11,2.53.74.15c2.95-1.66,5.76-1.82,8.79-2.59-2.83-2.21-6.06-2.83-9.53-2.67ZM219.02,226.27l4.42-13.41c-4.98,2.38-8.15,6.96-10.74,11.53-1.99-2.81-4.25-5.14-7.36-6.25l4,10.32,12.49,2.7,8.86-2.45c-3.36-2.75-7.4-3.1-11.67-2.44ZM205.69,129.83l-5.18-4.04-6.05,1.6-.11,2.44-.38,8.67,12.64-7.95-.92-.71ZM171.96,133.61l7.5,7.74,2.44-10.59-2.44.69-7.5,2.15ZM471.38,77.5L99.08.42c-10.58-2.19-20.96,4.42-23.03,14.68-8.05,40.01-24.82,122.08-41.04,201.26-5.93,28.95-11.78,57.5-17.11,83.47-.79,3.87-1.57,7.68-2.34,11.43-2.64,12.88-5.13,24.98-7.39,36.03-3.04,14.83-5.69,27.74-7.8,38.05-2.04,9.97,4.56,19.67,14.85,21.83,108.15,22.73,261.14,55.34,369.47,78.22,10.55,2.22,20.93-4.31,23.07-14.53,6.35-30.29,13.39-64.16,20.77-99.61,4.09-19.63,8.29-39.74,12.52-60,.8-3.8,1.59-7.62,2.39-11.43,2.79-13.34,5.59-26.72,8.4-40.03,12-57.08,23.92-113.02,34.39-160.16,2.23-10.07-4.41-19.98-14.85-22.14ZM109.85,99.55l12.71-27.45c.87-1.87,2.03-3.27,4.33-3.17l27.34-2.71,15.33-20.67,35.44-3.52c2.48-.25,3.76.59,5.55,1.99l25.5,19.89c2.08,1.63,2.56,2.87,2.53,5.51l-.25,21.83,17.03,11.52,1.79,22.5c.17,2.21-.83,3.31-2.73,4.26l-18.38,9.16-1.65.82-19.33-3.71-20.56,20.13.85,32.52c13.68,1.66,27.16,3.31,40.69,5.4,4.93.75,9.87,1.56,14.83,2.46l25.61,5.95,3.97.93-1.26-12.2c3.85,2.42,5.59,6.3,7.69,9.99,1.68-5.06,6.56-14.9,8.21-15.09,1.89-.21-2.04,17.67-3.11,24.31l13.57-20.81,24.01-19.06c1.37-1.08,3.4-1.09,4.87-.25l17.33,9.95c2,1.15,3.37,2.43,3.64,4.72l2.29,19.4-15.38,4.45-8.48,14.72-2.3,4c-.36.63-.52,1.79.26,2.18l13.92,7.08.4.2c2.57,1.3,5.81,1.15,8.71,1.47l11.63,1.28-17.96-5.47-7.17-4.78c-.67-.44-1.26-1.47-.88-2.16l7.6-13.75,12.36-4.37c2.32-.82,4.15-.71,6.15.72l10.6,7.61c1.36.97,1.99,1.99,2.18,3.85l1.48,14.7,24.04,10.34c5.26,2.26,21.66,11.98,20.97,15.78-.23,1.25-1.22,2.38-2.71,2.74l-10.93,2.62-20.95,4.12-12.94,1.45-5.67.63-26.88,2.82-17.29-.83-27.67-1.32-24.3-6.49-2.92-.78-16.12-3.9-21.4-4.82-6.54-1.48-48.19-7.35c-.64-.1-1.25-.18-1.85-.27-2.04-.31-3.92-.68-5.84-1.57l-27.23-12.76-3.79-1.1-29.9-8.72-22.28-14.79-2.48-1.32-4.48-2.39-10.62-5.67c-4.67-2.48-12.33-6.87-11.85-9.95.16-1.02.96-2.19,2.2-2.62,3.69-1.27,7.42-2.15,11.38-2.64l21.93-2.63c14.93-.39,29.43.8,44.5,1.44l-2.33-8.26-.22-.79c-.07-.25.72-.94,1.02-.73,1.18.81,2.2,1.69,3.13,2.64,1.41,1.45,2.61,3.03,3.86,4.69,1.15-4.91,1.79-9.65,4.99-13.53,1.4,5.82.99,10.97,1.44,16.79l16.41-34.2-10.5-18.31-16.2-2.2-4.93-.68-4.33-.59-22.38-24.95c-1.28-1.43-1.98-2.86-1.11-4.74ZM89.76,350.58l-6.76-11.07c-1-1.63-1.02-3.46-.05-5.12l2.78-4.75c.74-1.27,1.86-2.21,3.31-2.64l6.75-1.99s.02,0,.03,0c1.71-.48,4.11.1,4.64,1.81l3.28,10.68c.54,1.78.34,3.43-.94,4.86l-1.18,1.31-6.05,6.79c-.83.93-1.41,1.64-2.55,1.71-1.17.08-2.45-.27-3.26-1.58ZM132.35,389.63l-5.02,17.82c-.37,1.31-1.38,2.01-2.59,2.49l-5.71,2.25c-2.38.94-4.97.02-5.83-2.38l-9.88-17.12c-.98-1.69-1.29-3.87.19-5.39l9.48-9.82c1.31-1.36,3.65-1.31,5.22-.34l12.77,7.96c1.48.92,1.82,2.91,1.37,4.53ZM279.38,414.05l-1.34,9.17c-.14.97-.59,2.26-1.54,2.68l-9.62,4.3c-1.63.72-3.33-.42-3.54-1.86l-1.3-9.04c-.33-2.28,1-3.83,3-4.72l10.09-4.5c1.12-.5,2.43-.13,3.37.69.76.65,1.08,1.93.88,3.28ZM330.77,387.47l-11.92,19.04c-.77,1.23-1.55,1.94-2.56,2-1.29.07-2.37-.57-3.06-1.76l-7.14-12.29c-.7-1.21,1.22-11.94,3.33-12.78l11.39-4.55c1.46-.58,3.32-.36,4.4.77l5.43,5.63c1.01,1.04.87,2.74.13,3.93ZM331.13,346.98l8.4-20.37,2.73-6.62.86-2.08-.86,1.08-6.07,7.63-4.73,5.94-9.53,13.49-6.57,9.3-13.4,7.6-8.98,5.09-16.03,20.85-10.06,5.92-30.33,19.06c-2.64,1.66-4.42-2.01-6.69-2.39l-28.64,22.38c-1.24.97-3.46-.29-4.26-1.4l-10.47-14.58-3.4-20.12-5.7-22.49-.97,20.91c-.03.56-.19,1.2-.49,1.35-.36.17-1.18.07-1.65-.3l-25.57-19.95-2.03-6-1.02-3.03-8.84-26.2-7.57-8.64-10.97-12.54-1.41-9.41-1.73-11.61-.24-1.6-4.46-22.24-2.46,19.4c-.08.57-.37,1.03-.67,1.16-.46.18-1.2.08-1.66-.47l-19.12-22.84-3.97-4.74-6.86-34.6-.68-3.43c-5.2-1.86-8.21.39-9.14-4.4l-5.07-26.01,6.34,4.32,14.81,7.36,5.51,2.74h.01l19.1,14.71,27.07,10.74c1.41.81,2.15,2.01,2.3,3.53l1.95,20.77,4.69-4.47,10.02-9.56c1.16-1.1,2.95-1.28,4.5-.82l22.34,7.5,2.6.87,49.09,6.23,4.89,2.43,28.37,14.1c2.27,1.13,2.95,2.65,3.28,4.97l2.98,21.3,6.2-6.97,15.06-16.93c1.19-1.34,3.27-1.44,5.06-1.36l31.46,1.04,17.42.58,34.35-6.55c.37-.11.74-.21,1.11-.32,7.14-1.99,14.19-2.81,21.59-3.81l19.53-2.64-15.19,25.39c-.75,1.26-2.09,1.63-3.37.77l-5.28-3.57-1.29,1.71-22.07,29.22-3.9,2.27-19.97,11.62-16.28,9.47c-1.32.77-2.59,1.22-3.97.27ZM328.45,264.35l.74.15c2.95-1.66,5.76-1.82,8.79-2.59-2.83-2.21-6.06-2.83-9.53-2.67-.82.03-1.66.12-2.5.22l2.5-7.72,1.58-4.88c-.55.28-1.08.58-1.58.9-3.98,2.5-6.53,6.07-8.61,10.16-2.15-2.64-4.06-4.68-7.3-5.98l3.8,9.88,12.11,2.53ZM221.83,231.16l8.86-2.45c-3.36-2.75-7.4-3.1-11.67-2.44l4.42-13.41c-4.98,2.38-8.15,6.96-10.74,11.53-1.99-2.81-4.25-5.14-7.36-6.25l4,10.32,12.49,2.7ZM205.69,129.83l-5.18-4.04-6.05,1.6-.11,2.44-.38,8.67,12.64-7.95-.92-.71ZM181.9,130.77l-2.44.69-7.5,2.15,7.5,7.74,2.44-10.59ZM179.46,131.46l-7.5,2.15,7.5,7.74,2.44-10.59-2.44.69ZM205.69,129.83l-5.18-4.04-6.05,1.6-.11,2.44-.38,8.67,12.64-7.95-.92-.71ZM219.02,226.27l4.42-13.41c-4.98,2.38-8.15,6.96-10.74,11.53-1.99-2.81-4.25-5.14-7.36-6.25l4,10.32,12.49,2.7,8.86-2.45c-3.36-2.75-7.4-3.1-11.67-2.44ZM328.45,259.25c-.82.03-1.66.12-2.5.22l2.5-7.72,1.58-4.88c-.55.28-1.08.58-1.58.9-3.98,2.5-6.53,6.07-8.61,10.16-2.15-2.64-4.06-4.68-7.3-5.98l3.8,9.88,12.11,2.53.74.15c2.95-1.66,5.76-1.82,8.79-2.59-2.83-2.21-6.06-2.83-9.53-2.67ZM342.26,318.99v1l.86-2.08-.86,1.08ZM378.29,272.91l-5.67.63-26.88,2.82-17.29-.83-27.67-1.32-24.3-6.49-2.92-.78-16.12-3.9-21.4-4.82-6.54-1.48-48.19-7.35c-.64-.1-1.25-.18-1.85-.27-2.04-.31-3.92-.68-5.84-1.57l-27.23-12.76-3.79-1.1v26.09l10.02-9.56c1.16-1.1,2.95-1.28,4.5-.82l22.34,7.5,2.6.87,49.09,6.23,4.89,2.43,28.37,14.1c2.27,1.13,2.95,2.65,3.28,4.97l2.98,21.3,6.2-6.97,15.06-16.93c1.19-1.34,3.27-1.44,5.06-1.36l31.46,1.04,17.42.58,34.35-6.55c.37-.11.74-.21,1.11-.32l-3.04-3.39ZM328.45,259.25c-.82.03-1.66.12-2.5.22l2.5-7.72,1.58-4.88c-.55.28-1.08.58-1.58.9-3.98,2.5-6.53,6.07-8.61,10.16-2.15-2.64-4.06-4.68-7.3-5.98l3.8,9.88,12.11,2.53.74.15c2.95-1.66,5.76-1.82,8.79-2.59-2.83-2.21-6.06-2.83-9.53-2.67ZM219.02,226.27l4.42-13.41c-4.98,2.38-8.15,6.96-10.74,11.53-1.99-2.81-4.25-5.14-7.36-6.25l4,10.32,12.49,2.7,8.86-2.45c-3.36-2.75-7.4-3.1-11.67-2.44ZM205.69,129.83l-5.18-4.04-6.05,1.6-.11,2.44-.38,8.67,12.64-7.95-.92-.71ZM179.46,131.46l-7.5,2.15,7.5,7.74,2.44-10.59-2.44.69ZM179.46,131.46l-7.5,2.15,7.5,7.74,2.44-10.59-2.44.69ZM205.69,129.83l-5.18-4.04-6.05,1.6-.11,2.44-.38,8.67,12.64-7.95-.92-.71ZM219.02,226.27l4.42-13.41c-4.98,2.38-8.15,6.96-10.74,11.53-1.99-2.81-4.25-5.14-7.36-6.25l4,10.32,12.49,2.7,8.86-2.45c-3.36-2.75-7.4-3.1-11.67-2.44ZM328.45,259.25c-.82.03-1.66.12-2.5.22l2.5-7.72,1.58-4.88c-.55.28-1.08.58-1.58.9-3.98,2.5-6.53,6.07-8.61,10.16-2.15-2.64-4.06-4.68-7.3-5.98l3.8,9.88,12.11,2.53.74.15c2.95-1.66,5.76-1.82,8.79-2.59-2.83-2.21-6.06-2.83-9.53-2.67ZM342.26,318.99v1l.86-2.08-.86,1.08ZM378.29,272.91l-5.67.63-26.88,2.82-17.29-.83-27.67-1.32-24.3-6.49-2.92-.78-16.12-3.9-21.4-4.82-6.54-1.48-48.19-7.35c-.64-.1-1.25-.18-1.85-.27-2.04-.31-3.92-.68-5.84-1.57l-27.23-12.76-3.79-1.1v26.09l10.02-9.56c1.16-1.1,2.95-1.28,4.5-.82l22.34,7.5,2.6.87,49.09,6.23,4.89,2.43,28.37,14.1c2.27,1.13,2.95,2.65,3.28,4.97l2.98,21.3,6.2-6.97,15.06-16.93c1.19-1.34,3.27-1.44,5.06-1.36l31.46,1.04,17.42.58,34.35-6.55c.37-.11.74-.21,1.11-.32l-3.04-3.39ZM328.45,259.25c-.82.03-1.66.12-2.5.22l2.5-7.72,1.58-4.88c-.55.28-1.08.58-1.58.9-3.98,2.5-6.53,6.07-8.61,10.16-2.15-2.64-4.06-4.68-7.3-5.98l3.8,9.88,12.11,2.53.74.15c2.95-1.66,5.76-1.82,8.79-2.59-2.83-2.21-6.06-2.83-9.53-2.67ZM219.02,226.27l4.42-13.41c-4.98,2.38-8.15,6.96-10.74,11.53-1.99-2.81-4.25-5.14-7.36-6.25l4,10.32,12.49,2.7,8.86-2.45c-3.36-2.75-7.4-3.1-11.67-2.44ZM205.69,129.83l-5.18-4.04-6.05,1.6-.11,2.44-.38,8.67,12.64-7.95-.92-.71ZM179.46,131.46l-7.5,2.15,7.5,7.74,2.44-10.59-2.44.69ZM179.46,131.46l-7.5,2.15,7.5,7.74,2.44-10.59-2.44.69ZM205.69,129.83l-5.18-4.04-6.05,1.6-.11,2.44-.38,8.67,12.64-7.95-.92-.71ZM219.02,226.27l4.42-13.41c-4.98,2.38-8.15,6.96-10.74,11.53-1.99-2.81-4.25-5.14-7.36-6.25l4,10.32,12.49,2.7,8.86-2.45c-3.36-2.75-7.4-3.1-11.67-2.44ZM328.45,259.25c-.82.03-1.66.12-2.5.22l2.5-7.72,1.58-4.88c-.55.28-1.08.58-1.58.9-3.98,2.5-6.53,6.07-8.61,10.16-2.15-2.64-4.06-4.68-7.3-5.98l3.8,9.88,12.11,2.53.74.15c2.95-1.66,5.76-1.82,8.79-2.59-2.83-2.21-6.06-2.83-9.53-2.67ZM342.26,318.99v1l.86-2.08-.86,1.08ZM378.29,272.91l-5.67.63-26.88,2.82-17.29-.83-27.67-1.32-24.3-6.49-2.92-.78-16.12-3.9-21.4-4.82-6.54-1.48-48.19-7.35c-.64-.1-1.25-.18-1.85-.27-2.04-.31-3.92-.68-5.84-1.57l-27.23-12.76-3.79-1.1v26.09l10.02-9.56c1.16-1.1,2.95-1.28,4.5-.82l22.34,7.5,2.6.87,49.09,6.23,4.89,2.43,28.37,14.1c2.27,1.13,2.95,2.65,3.28,4.97l2.98,21.3,6.2-6.97,15.06-16.93c1.19-1.34,3.27-1.44,5.06-1.36l31.46,1.04,17.42.58,34.35-6.55c.37-.11.74-.21,1.11-.32l-3.04-3.39ZM328.45,259.25c-.82.03-1.66.12-2.5.22l2.5-7.72,1.58-4.88c-.55.28-1.08.58-1.58.9-3.98,2.5-6.53,6.07-8.61,10.16-2.15-2.64-4.06-4.68-7.3-5.98l3.8,9.88,12.11,2.53.74.15c2.95-1.66,5.76-1.82,8.79-2.59-2.83-2.21-6.06-2.83-9.53-2.67ZM219.02,226.27l4.42-13.41c-4.98,2.38-8.15,6.96-10.74,11.53-1.99-2.81-4.25-5.14-7.36-6.25l4,10.32,12.49,2.7,8.86-2.45c-3.36-2.75-7.4-3.1-11.67-2.44ZM205.69,129.83l-5.18-4.04-6.05,1.6-.11,2.44-.38,8.67,12.64-7.95-.92-.71ZM179.46,131.46l-7.5,2.15,7.5,7.74,2.44-10.59-2.44.69ZM179.46,131.46l-7.5,2.15,7.5,7.74,2.44-10.59-2.44.69ZM205.69,129.83l-5.18-4.04-6.05,1.6-.11,2.44-.38,8.67,12.64-7.95-.92-.71ZM219.02,226.27l4.42-13.41c-4.98,2.38-8.15,6.96-10.74,11.53-1.99-2.81-4.25-5.14-7.36-6.25l4,10.32,12.49,2.7,8.86-2.45c-3.36-2.75-7.4-3.1-11.67-2.44ZM328.45,259.25c-.82.03-1.66.12-2.5.22l2.5-7.72,1.58-4.88c-.55.28-1.08.58-1.58.9-3.98,2.5-6.53,6.07-8.61,10.16-2.15-2.64-4.06-4.68-7.3-5.98l3.8,9.88,12.11,2.53.74.15c2.95-1.66,5.76-1.82,8.79-2.59-2.83-2.21-6.06-2.83-9.53-2.67ZM342.26,318.99v1l.86-2.08-.86,1.08ZM378.29,272.91l-5.67.63-26.88,2.82-17.29-.83-27.67-1.32-24.3-6.49-2.92-.78-16.12-3.9-21.4-4.82-6.54-1.48-48.19-7.35c-.64-.1-1.25-.18-1.85-.27-2.04-.31-3.92-.68-5.84-1.57l-27.23-12.76-3.79-1.1v26.09l10.02-9.56c1.16-1.1,2.95-1.28,4.5-.82l22.34,7.5,2.6.87,49.09,6.23,4.89,2.43,28.37,14.1c2.27,1.13,2.95,2.65,3.28,4.97l2.98,21.3,6.2-6.97,15.06-16.93c1.19-1.34,3.27-1.44,5.06-1.36l31.46,1.04,17.42.58,34.35-6.55c.37-.11.74-.21,1.11-.32l-3.04-3.39ZM328.45,259.25c-.82.03-1.66.12-2.5.22l2.5-7.72,1.58-4.88c-.55.28-1.08.58-1.58.9-3.98,2.5-6.53,6.07-8.61,10.16-2.15-2.64-4.06-4.68-7.3-5.98l3.8,9.88,12.11,2.53.74.15c2.95-1.66,5.76-1.82,8.79-2.59-2.83-2.21-6.06-2.83-9.53-2.67ZM219.02,226.27l4.42-13.41c-4.98,2.38-8.15,6.96-10.74,11.53-1.99-2.81-4.25-5.14-7.36-6.25l4,10.32,12.49,2.7,8.86-2.45c-3.36-2.75-7.4-3.1-11.67-2.44ZM205.69,129.83l-5.18-4.04-6.05,1.6-.11,2.44-.38,8.67,12.64-7.95-.92-.71ZM179.46,131.46l-7.5,2.15,7.5,7.74,2.44-10.59-2.44.69ZM276.48,299.84v-32.12l-2.92-.78-16.12-3.9-21.4-4.82-6.54-1.48-48.19-7.35c-.64-.1-1.25-.18-1.85-.27-2.04-.31-3.92-.68-5.84-1.57l-27.23-12.76-3.79-1.1v26.09l10.02-9.56c1.16-1.1,2.95-1.28,4.5-.82l22.34,7.5,2.6.87,49.09,6.23,4.89,2.43,28.37,14.1c2.27,1.13,2.95,2.65,3.28,4.97l2.98,21.3,6.2-6.97h-.39ZM342.26,318.99v1l.86-2.08-.86,1.08ZM112.7,224.97l-22.28-14.79-2.48-1.32c-.16,1.8-.31,3.67-.46,5.63h.01l19.1,14.71,27.07,10.74c1.41.81,2.15,2.01,2.3,3.53l1.95,20.77,4.69-4.47v-26.09l-29.9-8.72ZM179.46,131.46l-7.5,2.15,7.5,7.74,2.44-10.59-2.44.69ZM205.69,129.83l-5.18-4.04-6.05,1.6-.11,2.44-.38,8.67,12.64-7.95-.92-.71ZM219.02,226.27l4.42-13.41c-4.98,2.38-8.15,6.96-10.74,11.53-1.99-2.81-4.25-5.14-7.36-6.25l4,10.32,12.49,2.7,8.86-2.45c-3.36-2.75-7.4-3.1-11.67-2.44ZM328.45,259.25c-.82.03-1.66.12-2.5.22l2.5-7.72,1.58-4.88c-.55.28-1.08.58-1.58.9-3.98,2.5-6.53,6.07-8.61,10.16-2.15-2.64-4.06-4.68-7.3-5.98l3.8,9.88,12.11,2.53.74.15c2.95-1.66,5.76-1.82,8.79-2.59-2.83-2.21-6.06-2.83-9.53-2.67ZM328.45,259.25c-.82.03-1.66.12-2.5.22l2.5-7.72,1.58-4.88c-.55.28-1.08.58-1.58.9-3.98,2.5-6.53,6.07-8.61,10.16-2.15-2.64-4.06-4.68-7.3-5.98l3.8,9.88,12.11,2.53.74.15c2.95-1.66,5.76-1.82,8.79-2.59-2.83-2.21-6.06-2.83-9.53-2.67ZM219.02,226.27l4.42-13.41c-4.98,2.38-8.15,6.96-10.74,11.53-1.99-2.81-4.25-5.14-7.36-6.25l4,10.32,12.49,2.7,8.86-2.45c-3.36-2.75-7.4-3.1-11.67-2.44ZM205.69,129.83l-5.18-4.04-6.05,1.6-.11,2.44-.38,8.67,12.64-7.95-.92-.71ZM179.46,131.46l-7.5,2.15,7.5,7.74,2.44-10.59-2.44.69ZM179.46,131.46l-7.5,2.15,7.5,7.74,2.44-10.59-2.44.69ZM205.69,129.83l-5.18-4.04-6.05,1.6-.11,2.44-.38,8.67,12.64-7.95-.92-.71ZM219.02,226.27l4.42-13.41c-4.98,2.38-8.15,6.96-10.74,11.53-1.99-2.81-4.25-5.14-7.36-6.25l4,10.32,12.49,2.7,8.86-2.45c-3.36-2.75-7.4-3.1-11.67-2.44ZM328.45,259.25c-.82.03-1.66.12-2.5.22l2.5-7.72,1.58-4.88c-.55.28-1.08.58-1.58.9-3.98,2.5-6.53,6.07-8.61,10.16-2.15-2.64-4.06-4.68-7.3-5.98l3.8,9.88,12.11,2.53.74.15c2.95-1.66,5.76-1.82,8.79-2.59-2.83-2.21-6.06-2.83-9.53-2.67ZM328.45,259.25c-.82.03-1.66.12-2.5.22l2.5-7.72,1.58-4.88c-.55.28-1.08.58-1.58.9-3.98,2.5-6.53,6.07-8.61,10.16-2.15-2.64-4.06-4.68-7.3-5.98l3.8,9.88,12.11,2.53.74.15c2.95-1.66,5.76-1.82,8.79-2.59-2.83-2.21-6.06-2.83-9.53-2.67ZM219.02,226.27l4.42-13.41c-4.98,2.38-8.15,6.96-10.74,11.53-1.99-2.81-4.25-5.14-7.36-6.25l4,10.32,12.49,2.7,8.86-2.45c-3.36-2.75-7.4-3.1-11.67-2.44ZM205.69,129.83l-5.18-4.04-6.05,1.6-.11,2.44-.38,8.67,12.64-7.95-.92-.71ZM179.46,131.46l-7.5,2.15,7.5,7.74,2.44-10.59-2.44.69ZM179.46,131.46l-7.5,2.15,7.5,7.74,2.44-10.59-2.44.69ZM205.69,129.83l-5.18-4.04-6.05,1.6-.11,2.44-.38,8.67,12.64-7.95-.92-.71ZM219.02,226.27l4.42-13.41c-4.98,2.38-8.15,6.96-10.74,11.53-1.99-2.81-4.25-5.14-7.36-6.25l4,10.32,12.49,2.7,8.86-2.45c-3.36-2.75-7.4-3.1-11.67-2.44ZM328.45,259.25c-.82.03-1.66.12-2.5.22l2.5-7.72,1.58-4.88c-.55.28-1.08.58-1.58.9-3.98,2.5-6.53,6.07-8.61,10.16-2.15-2.64-4.06-4.68-7.3-5.98l3.8,9.88,12.11,2.53.74.15c2.95-1.66,5.76-1.82,8.79-2.59-2.83-2.21-6.06-2.83-9.53-2.67ZM328.45,259.25c-.82.03-1.66.12-2.5.22l2.5-7.72,1.58-4.88c-.55.28-1.08.58-1.58.9-3.98,2.5-6.53,6.07-8.61,10.16-2.15-2.64-4.06-4.68-7.3-5.98l3.8,9.88,12.11,2.53.74.15c2.95-1.66,5.76-1.82,8.79-2.59-2.83-2.21-6.06-2.83-9.53-2.67ZM219.02,226.27l4.42-13.41c-4.98,2.38-8.15,6.96-10.74,11.53-1.99-2.81-4.25-5.14-7.36-6.25l4,10.32,12.49,2.7,8.86-2.45c-3.36-2.75-7.4-3.1-11.67-2.44ZM205.69,129.83l-5.18-4.04-6.05,1.6-.11,2.44-.38,8.67,12.64-7.95-.92-.71ZM179.46,131.46l-7.5,2.15,7.5,7.74,2.44-10.59-2.44.69Z"/>
  </g>
</svg>