<?xml version="1.0" encoding="UTF-8"?>
<svg id="Camada_2" data-name="Camada 2" xmlns="http://www.w3.org/2000/svg" viewBox="0 0 365.02 406.34">
  <defs>
    <style>
      .cls-1 {
        fill: #191919;
      }
    </style>
  </defs>
  <g id="Camada_1-2" data-name="Camada 1">
    <g>
      <path class="cls-1" d="M41.98,311.19l-1.18,1.36-6.05,7.03c-.83.96-1.41,1.7-2.55,1.77-1.17.08-2.45-.28-3.26-1.64l-6.76-11.47c-1-1.69-1.02-3.58-.05-5.3l2.78-4.92c.74-1.32,1.86-2.29,3.31-2.73l6.75-2.06s.02-.01.03-.01c1.71-.5,4.11.1,4.64,1.88l3.28,11.06c.54,1.84.34,3.55-.94,5.03Z"/>
      <path class="cls-1" d="M71.53,360.17l-4.44,16.31-.58,2.15c-.05.17-.1.33-.17.48-.46,1.06-1.36,1.66-2.42,2.1l-5.71,2.33c-2.38.97-4.97.02-5.83-2.47l-4.93-8.85-4.95-8.89c-.98-1.75-1.29-4.01.19-5.58l9.48-10.17c1.31-1.41,3.65-1.36,5.22-.35l12.77,8.25c1.48.95,1.82,3.02,1.37,4.69Z"/>
      <path class="cls-1" d="M217.68,382.07c.76.67,1.08,2,.88,3.4l-1.34,9.5c-.14,1-.59,2.34-1.54,2.78l-9.62,4.46c-1.63.75-3.33-.43-3.54-1.93l-1.3-9.37c-.33-2.36,1-3.97,3-4.89l10.09-4.66c1.12-.52,2.43-.13,3.37.71Z"/>
      <path class="cls-1" d="M269.82,353.86c1.01,1.08.87,2.84.13,4.07l-11.92,19.73c-.77,1.27-1.55,2.01-2.56,2.07-1.29.07-2.37-.59-3.06-1.82l-7.14-12.73c-.7-1.25,1.22-12.37,3.33-13.24l11.39-4.71c1.46-.6,3.32-.37,4.4.8l5.43,5.83Z"/>
      <path class="cls-1" d="M342.1,238.8l19.53-2.74-15.19,26.3c-.75,1.31-2.09,1.69-3.37.8l-5.28-3.7-1.29,1.77-22.07,30.27-3.9,2.35-19.97,12.04-16.28,9.81c-1.32.8-2.59,1.26-3.97.28l8.4-21.1,2.73-6.86.86-2.16-.86,1.12-6.07,7.9-4.73,6.15-9.53,13.98-6.57,9.64-13.4,7.87-8.98,5.27-16.03,21.6-10.06,6.13-30.33,19.75c-2.64,1.72-4.42-2.08-6.69-2.48l-28.64,23.19c-.46.37-1.05.43-1.65.29-1.04-.23-2.1-1.02-2.61-1.74l-10.47-15.11-.04-.24-3.36-20.6-5.7-23.3-.97,21.66c-.03.58-.19,1.24-.49,1.4-.36.18-1.18.07-1.65-.31l-25.57-20.67-2.03-6.22-1.02-3.14-8.84-27.14-7.57-8.95-10.97-12.99-1.41-9.75-1.73-12.03-.24-1.66-4.46-23.04-2.46,20.1c-.08.59-.37,1.07-.67,1.2-.46.19-1.2.08-1.66-.49l-19.12-23.66-3.97-4.91-6.86-35.85-.68-3.55c-5.2-1.93-8.21.4-9.14-4.56l-5.07-26.95,6.34,4.48,14.81,7.63,5.51,2.84h.01l19.1,15.24,27.07,11.13c1.41.84,2.15,2.08,2.3,3.66l1.95,21.52,4.69-4.63,10.02-9.9c1.16-1.14,2.95-1.33,4.5-.85l22.34,7.77,2.6.9,49.09,6.45,4.89,2.52,28.37,14.61c2.27,1.17,2.95,2.75,3.28,5.15l2.98,22.07,6.2-7.22,15.06-17.54c1.19-1.39,3.27-1.49,5.06-1.41l31.46,1.08,17.42.6,34.35-6.79,1.11-.33c7.14-2.06,14.19-2.91,21.59-3.95Z"/>
      <path class="cls-1" d="M344.03,211.57l-24.04-10.71-1.48-15.23c-.19-1.93-.82-2.99-2.18-3.99l-10.6-7.88c-2-1.49-3.83-1.6-6.15-.75l-12.36,4.53-7.6,14.25c-.38.72.21,1.78.88,2.24l7.17,4.95,17.96,5.67-11.63-1.33c-2.9-.33-6.14-.17-8.71-1.52l-.4-.21-13.92-7.33c-.78-.41-.62-1.61-.26-2.26l2.3-4.14,8.48-15.25,15.38-4.61-2.29-20.1c-.27-2.37-1.64-3.7-3.64-4.89l-17.33-10.31c-1.47-.87-3.5-.86-4.87.26l-24.01,19.75-13.57,21.56c1.07-6.88,5-25.41,3.11-25.19-1.65.19-6.53,10.39-8.21,15.63-2.1-3.82-3.84-7.84-7.69-10.35l1.26,12.64-3.97-.96-25.61-6.16c-4.96-.93-9.9-1.77-14.83-2.55-13.53-2.16-27.01-3.87-40.69-5.59l-.85-33.69,20.56-20.85,19.33,3.84,1.65-.85,18.38-9.49c1.9-.98,2.9-2.12,2.73-4.41l-1.79-23.31-17.03-11.93.25-22.62c.03-2.74-.45-4.02-2.53-5.71l-25.5-20.61c-1.79-1.45-3.07-2.32-5.55-2.06l-35.44,3.65-15.33,21.41-27.34,2.81c-2.3-.11-3.46,1.34-4.33,3.28l-12.71,28.44c-.87,1.95-.17,3.43,1.11,4.91l22.38,25.85,4.33.61,4.93.7,16.2,2.28,10.5,18.97-16.41,35.43c-.45-6.03-.04-11.36-1.44-17.39-3.2,4.02-3.84,8.93-4.99,14.02-1.25-1.72-2.45-3.36-3.86-4.86-.93-.99-1.95-1.9-3.13-2.74-.3-.21-1.09.5-1.02.76l.22.82,2.33,8.56c-15.07-.66-29.57-1.89-44.5-1.49l-21.93,2.72c-3.96.5-7.69,1.41-11.38,2.73-1.24.44-2.04,1.65-2.2,2.71-.48,3.19,7.18,7.74,11.85,10.31l10.62,5.87,4.48,2.48,2.48,1.37,22.28,15.32,29.9,9.03,3.79,1.14,27.23,13.22c1.92.93,3.8,1.31,5.84,1.63.6.09,1.21.18,1.85.28l48.19,7.61,6.54,1.53,21.4,4.99,16.12,4.04,2.92.81,24.3,6.72,27.67,1.37,17.29.86,26.88-2.92,5.67-.65,12.94-1.5,20.95-4.27,10.93-2.71c1.49-.37,2.48-1.54,2.71-2.84.69-3.94-15.71-14.01-20.97-16.35ZM118.64,102.95l-7.5-8.02,7.5-2.23,2.44-.72-2.44,10.97ZM133.53,91.01l.11-2.53,6.05-1.66,5.18,4.19.92.74-12.64,8.24.38-8.98ZM161.01,195.99l-12.49-2.8-4-10.69c3.11,1.16,5.37,3.57,7.36,6.48,2.59-4.74,5.76-9.48,10.74-11.95l-4.42,13.89c4.27-.68,8.31-.32,11.67,2.53l-8.86,2.54ZM268.37,230.54l-.74-.16-12.11-2.62-3.8-10.24c3.24,1.35,5.15,3.47,7.3,6.2,2.08-4.24,4.63-7.94,8.61-10.53.5-.33,1.03-.64,1.58-.93l-1.58,5.06-2.5,8c.84-.11,1.68-.2,2.5-.23,3.47-.16,6.7.48,9.53,2.77-3.03.79-5.84.96-8.79,2.68Z"/>
    </g>
  </g>
</svg>